<?xml version="1.0" encoding="UTF-8" standalone="no"?>
<!-- Created with Inkscape (http://www.inkscape.org/) -->

<svg
   xmlns:dc="http://purl.org/dc/elements/1.1/"
   xmlns:cc="http://creativecommons.org/ns#"
   xmlns:rdf="http://www.w3.org/1999/02/22-rdf-syntax-ns#"
   xmlns:svg="http://www.w3.org/2000/svg"
   xmlns="http://www.w3.org/2000/svg"
   xmlns:sodipodi="http://sodipodi.sourceforge.net/DTD/sodipodi-0.dtd"
   xmlns:inkscape="http://www.inkscape.org/namespaces/inkscape"
   id="svg3050"
   version="1.1"
   inkscape:version="0.48.2 r9819"
   width="248.71628"
   height="108.74573"
   sodipodi:docname="seabird.svg">
  <metadata
     id="metadata3056">
    <rdf:RDF>
      <cc:Work
         rdf:about="">
        <dc:format>image/svg+xml</dc:format>
        <dc:type
           rdf:resource="http://purl.org/dc/dcmitype/StillImage" />
        <dc:title />
      </cc:Work>
    </rdf:RDF>
  </metadata>
  <defs
     id="defs3054">
    <clipPath
       clipPathUnits="userSpaceOnUse"
       id="clipPath3062">
      <rect
         style="fill:#125955;fill-opacity:0.33333333"
         id="rect3064"
         width="266.54507"
         height="126.25819"
         x="767.68103"
         y="177.56694" />
    </clipPath>
    <filter
       id="filter3068"
       inkscape:label="Desaturate"
       x="0"
       y="0"
       width="1"
       height="1"
       inkscape:menu="Color"
       inkscape:menu-tooltip="Render in shades of gray by reducing saturation to zero"
       color-interpolation-filters="sRGB">
      <feColorMatrix
         id="feColorMatrix3070"
         type="saturate"
         values="0" />
    </filter>
  </defs>
  <sodipodi:namedview
     pagecolor="#ffffff"
     bordercolor="#666666"
     borderopacity="1"
     objecttolerance="10"
     gridtolerance="10"
     guidetolerance="10"
     inkscape:pageopacity="0"
     inkscape:pageshadow="2"
     inkscape:window-width="1672"
     inkscape:window-height="1006"
     id="namedview3052"
     showgrid="false"
     inkscape:zoom="2.56617"
     inkscape:cx="99.837055"
     inkscape:cy="31.172336"
     inkscape:window-x="0"
     inkscape:window-y="0"
     inkscape:window-maximized="0"
     inkscape:current-layer="layer1"
     fit-margin-left="1"
     fit-margin-top="1"
     fit-margin-right="1"
     fit-margin-bottom="1" />
  <g
     inkscape:groupmode="layer"
     id="layer1"
     inkscape:label="Background">
    <path
       style="color:#000000;fill:#ffffff;fill-opacity:1;fill-rule:nonzero;stroke:#ffffff;stroke-width:1;stroke-linecap:butt;stroke-linejoin:miter;stroke-miterlimit:4;stroke-opacity:1;stroke-dasharray:none;stroke-dashoffset:0;marker:none;visibility:visible;display:inline;overflow:visible;enable-background:accumulate"
       d="m 133.62256,94.179825 c -0.24337,-0.371423 -0.36948,-1.165954 -0.47436,-2.988526 -0.16508,-2.868625 -0.42526,-3.652355 -1.62168,-4.884972 -1.72564,-1.77785 -3.48989,-2.384174 -6.95641,-2.390715 -5.07851,-0.0096 -9.89053,1.51166 -18.15946,5.740814 -1.78969,0.915337 -4.01698,1.896981 -4.94953,2.181426 l -1.695556,0.517178 -1.268952,-0.343489 c -0.697921,-0.18892 -1.572351,-0.332084 -1.943174,-0.318143 -0.522017,0.01962 -0.819109,-0.119538 -1.316019,-0.616448 -0.90557,-0.90557 -1.313399,-2.429695 -1.227684,-4.588056 0.05938,-1.495286 0.153992,-1.872557 0.789747,-3.149243 0.397255,-0.797748 1.324074,-2.195722 2.059599,-3.106613 1.557683,-1.929073 2.381455,-3.268797 2.381455,-3.873028 0,-0.235971 -0.163504,-0.754344 -0.363343,-1.151939 -0.562168,-1.11848 -0.650643,-2.033224 -0.402828,-4.164862 0.363069,-3.122995 0.06385,-3.725496 -3.328462,-6.702066 C 90.583031,60.337466 88.8603,59.466513 82.837697,58.118535 78.826464,57.220744 76.170732,56.330505 73.326431,54.930229 69.67329,53.131755 66.10672,50.551412 65.408962,49.202101 65.242644,48.880476 64.991833,47.853746 64.851603,46.920477 64.513821,44.67246 63.978919,43.682303 61.752262,41.183299 60.735885,40.042609 59.492386,38.476312 58.98893,37.702641 57.255915,35.03948 57.06938,34.789578 56.479597,34.340866 c -0.325384,-0.247553 -0.82295,-0.507817 -1.105706,-0.578361 -0.831105,-0.207352 -3.361839,-2.376764 -6.597665,-5.65569 -3.596674,-3.644578 -5.966285,-5.596817 -8.975865,-7.3949 -1.681533,-1.004637 -2.641012,-1.749704 -3.914043,-3.039384 -2.20685,-2.235712 -2.984915,-2.776779 -4.902732,-3.409363 -1.881094,-0.62047 -3.282404,-1.293513 -4.224608,-2.029061 -0.91704,-0.715903 -1.616449,-1.057966 -3.224566,-1.577053 -1.688957,-0.545182 -2.425878,-1.2531607 -2.425878,-2.3306022 0,-0.9741416 0.521872,-1.354343 1.858997,-1.354343 1.380932,0 2.734513,0.4428066 5.345774,1.7488006 5.368248,2.6848706 12.345374,5.5146526 16.858327,6.8373976 1.1788,0.345506 3.58998,1.194191 5.35818,1.885968 1.768199,0.691777 5.692323,2.07768 8.720277,3.079786 5.973981,1.977097 7.855068,2.83156 9.795088,4.449306 1.817401,1.515498 5.587541,5.69294 9.019155,9.993528 2.194319,2.749977 3.422186,3.688927 5.810735,4.44347 1.993921,0.629878 2.564735,0.933621 3.656814,1.945861 1.252549,1.160977 3.215483,2.178155 7.619594,3.948417 2.091142,0.840549 4.300376,1.859022 4.909415,2.263276 1.34697,0.894072 2.18069,2.099904 2.71248,3.92314 0.89941,3.083613 0.95578,3.204207 1.84531,3.947761 0.95956,0.802094 2.23108,1.385639 3.05529,1.402185 1.36098,0.02732 4.146,2.18814 7.67432,5.954292 l 1.7868,1.907243 1.16899,-0.106001 c 2.27817,-0.206576 5.73739,-2.311842 8.70281,-5.296494 1.95702,-1.969716 3.38187,-2.967619 6.81826,-4.77522 5.7782,-3.03943 11.28552,-7.053431 12.04218,-8.776914 0.48299,-1.100146 1.14215,-2.068932 3.24506,-4.769369 1.71977,-2.208417 4.87442,-5.633773 5.49385,-5.965286 0.64944,-0.347567 3.06834,1.145487 5.18173,3.198391 1.65332,1.606006 1.45646,1.929297 -1.56883,2.576415 -1.90517,0.407522 -2.96496,1.196332 -4.48284,3.336609 -1.39543,1.967623 -3.21526,3.721743 -6.9541,6.702977 -1.66103,1.324462 -4.81749,3.97984 -7.01434,5.900841 -2.19685,1.921001 -4.59273,3.933897 -5.32416,4.473104 -1.02495,0.755583 -1.45478,1.229312 -1.87461,2.066061 -0.63678,1.269158 -1.17948,3.04657 -1.17948,3.862954 0,0.556479 0.75766,1.808545 1.42884,2.361217 0.46639,0.384043 0.40032,1.155477 -0.16212,1.892866 -1.11041,1.455831 -0.98947,2.223689 0.35024,2.223689 0.60266,0 1.48303,-0.319057 3.34153,-1.211009 3.84149,-1.84365 4.86909,-1.808269 8.65937,0.298145 2.13258,1.185163 4.23962,2.10985 7.32776,3.215815 3.49435,1.251449 5.37369,2.445057 7.94576,5.046507 l 1.7108,1.730338 -0.73658,0.358207 c -3.07396,1.494893 -4.60642,1.705534 -7.84835,1.078779 -5.61908,-1.086323 -8.18668,0.0869 -14.30549,6.536638 -3.61963,3.815396 -4.7911,4.567611 -5.47881,3.518025 l 0,0 z M 101.00693,89.3838 c 0.57609,-0.308313 0.51658,-1.624738 -0.10137,-2.242694 -0.5909,-0.590898 -1.207802,-0.609627 -1.798598,-0.0546 -0.637684,0.599074 -0.524348,1.858571 0.211453,2.349879 0.31358,0.209382 1.253735,0.180105 1.688515,-0.05258 z"
       id="path3929"
       inkscape:connector-curvature="0" />
    <path
       style="color:#000000;fill:#ffffff;fill-opacity:1;fill-rule:nonzero;stroke:#ffffff;stroke-width:0.1948429;stroke-linecap:butt;stroke-linejoin:miter;stroke-miterlimit:4;stroke-opacity:1;stroke-dasharray:none;stroke-dashoffset:0;marker:none;visibility:visible;display:inline;overflow:visible;enable-background:accumulate"
       d="m 160.77904,32.190676 c -0.33275,-0.261736 -0.51339,-0.592771 -0.51339,-0.940811 0,-1.475942 3.43535,-4.820358 6.09133,-5.930099 0.3923,-0.163913 1.1331,-0.358978 1.64623,-0.433479 1.42106,-0.206324 3.08682,-0.896975 5.04106,-2.090114 0.9735,-0.594357 2.11333,-1.228831 2.53296,-1.409942 2.25687,-0.97406 4.57468,-1.129451 6.83855,-0.45847 1.72314,0.510716 2.24414,0.404114 2.79237,-0.571347 0.52821,-0.939818 0.92762,-1.183072 2.64873,-1.61317 0.76624,-0.19148 2.60938,-0.888654 4.09585,-1.549274 1.77007,-0.786652 3.71122,-1.463842 5.62534,-1.962455 9.98778,-2.601739 26.51215,-5.053347 34.48719,-5.116629 3.31871,-0.02633 4.57881,0.123925 4.57881,0.545991 0,0.87281 -6.81601,2.409844 -12.56737,2.833987 -7.09102,0.522938 -9.97889,0.939727 -16.46422,2.376172 -5.36381,1.188039 -9.1113,2.311513 -12.7842,3.832626 -1.80969,0.749473 -5.65768,2.194059 -8.5511,3.210191 -9.25882,3.251583 -12.94644,4.76591 -17.92647,7.361545 -4.52585,2.358906 -6.40379,2.833937 -7.57167,1.915278 z"
       id="path3935"
       inkscape:connector-curvature="0" />
    <path
       style="color:#000000;fill:#ffffff;fill-opacity:1;fill-rule:nonzero;stroke:#ffffff;stroke-width:0.1948429;stroke-linecap:butt;stroke-linejoin:miter;stroke-miterlimit:4;stroke-opacity:1;stroke-dasharray:none;stroke-dashoffset:0;marker:none;visibility:visible;display:inline;overflow:visible;enable-background:accumulate"
       d="m 202.2543,20.924064 c -0.92999,-0.249381 -2.11604,-0.794262 -1.99417,-0.916136 0.19238,-0.192379 10.51772,-1.825995 11.54147,-1.826025 2.6599,-7.9e-5 2.62843,1.607109 -0.0475,2.425529 -0.86978,0.266017 -1.99641,0.357658 -5.01842,0.408201 -2.14328,0.03585 -4.1599,-0.0054 -4.48139,-0.09157 z"
       id="path3937"
       inkscape:connector-curvature="0" />
    <path
       style="color:#000000;fill:#ffffff;fill-opacity:1;fill-rule:nonzero;stroke:#ffffff;stroke-width:0.1948429;stroke-linecap:butt;stroke-linejoin:miter;stroke-miterlimit:4;stroke-opacity:1;stroke-dasharray:none;stroke-dashoffset:0;marker:none;visibility:visible;display:inline;overflow:visible;enable-background:accumulate"
       d="m 191.22024,25.995867 c -1.37517,-0.872517 -1.3546,-1.000659 0.16007,-0.997253 1.65676,0.0037 1.96544,0.168627 1.70539,0.911048 -0.26097,0.745037 -0.78865,0.769421 -1.86546,0.0862 l 0,0 z"
       id="path3939"
       inkscape:connector-curvature="0" />
    <path
       style="color:#000000;fill:#ffffff;fill-opacity:1;fill-rule:nonzero;stroke:#ffffff;stroke-width:0.1948429;stroke-linecap:butt;stroke-linejoin:miter;stroke-miterlimit:4;stroke-opacity:1;stroke-dasharray:none;stroke-dashoffset:0;marker:none;visibility:visible;display:inline;overflow:visible;enable-background:accumulate"
       d="m 159.03543,47.589375 c -1.0645,-0.310207 -1.40051,-1.029569 -0.90946,-1.947093 0.33306,-0.622328 1.84221,-1.375816 2.95858,-1.477153 1.33451,-0.121139 1.98501,0.203172 2.0659,1.02997 0.1314,1.34309 -2.48943,2.86799 -4.11502,2.394276 z"
       id="path3941"
       inkscape:connector-curvature="0" />
    <path
       style="color:#000000;fill:#ffffff;fill-opacity:1;fill-rule:nonzero;stroke:#ffffff;stroke-width:0.1948429;stroke-linecap:butt;stroke-linejoin:miter;stroke-miterlimit:4;stroke-opacity:1;stroke-dasharray:none;stroke-dashoffset:0;marker:none;visibility:visible;display:inline;overflow:visible;enable-background:accumulate"
       d="m 148.96477,52.979444 c 0,-0.725892 0.37745,-1.163946 0.9139,-1.060635 0.52099,0.100333 0.54274,0.718097 0.044,1.249002 -0.62631,0.666677 -0.95788,0.601473 -0.95788,-0.188367 z"
       id="path3943"
       inkscape:connector-curvature="0" />
    <path
       style="color:#000000;fill:#ffffff;fill-opacity:1;fill-rule:nonzero;stroke:#ffffff;stroke-width:0.1948429;stroke-linecap:butt;stroke-linejoin:miter;stroke-miterlimit:4;stroke-opacity:1;stroke-dasharray:none;stroke-dashoffset:0;marker:none;visibility:visible;display:inline;overflow:visible;enable-background:accumulate"
       d="m 137.11832,64.50977 c -0.40496,-0.404961 -0.256,-1.137876 0.35556,-1.74944 0.48265,-0.482644 0.64143,-0.546179 0.8768,-0.350841 0.15913,0.132072 0.28741,0.562261 0.28741,0.963852 0,1.073872 -0.90534,1.750856 -1.51977,1.136429 z"
       id="path3945"
       inkscape:connector-curvature="0" />
    <path
       style="color:#000000;fill:#ffffff;fill-opacity:1;fill-rule:nonzero;stroke:#ffffff;stroke-width:0.03444368;stroke-linecap:butt;stroke-linejoin:miter;stroke-miterlimit:4;stroke-opacity:1;stroke-dasharray:none;stroke-dashoffset:0;marker:none;visibility:visible;display:inline;overflow:visible;enable-background:accumulate"
       d="m 99.815183,88.378612 c -0.02952,-0.09942 -0.07819,-0.218165 -0.108142,-0.263881 -0.05133,-0.07834 -0.04913,-0.09081 0.03827,-0.216939 0.116259,-0.167762 0.194007,-0.193458 0.335439,-0.110861 0.15166,0.08857 0.19608,0.193243 0.19668,0.463404 5.6e-4,0.253242 0.009,0.2442 -0.26431,0.286633 l -0.144261,0.02241 -0.05368,-0.180762 z"
       id="path3947"
       inkscape:connector-curvature="0" />
  </g>
  <g
     id="g3143"
     transform="translate(-778.20013,-185.17765)">
    <path
       sodipodi:nodetypes="sssssssssssssssssssssscsssssssssssssscsssssssssssccsssssssssssscscssssssssscssssssssssssssssscscsssssscssssssscsssssssssccsssssssssscssccsssssssssssssscssssscss"
       inkscape:connector-curvature="0"
       d="m 913.7461,233.34371 c 2.88536,-2.53556 7.78524,-7.92517 10.88862,-11.97691 4.23649,-5.53111 6.23876,-7.3668 8.03528,-7.3668 1.37574,0 2.65656,-0.74383 3.01338,-1.75 1.12688,-3.17755 3.58845,-5.25 6.23572,-5.25 1.43503,0 5.07778,-0.93796 8.09502,-2.08436 3.01723,-1.14639 6.38588,-2.35314 7.48588,-2.68166 1.1,-0.32852 3.35,-1.35356 5,-2.27786 1.65,-0.92431 7.95,-2.68268 14,-3.90751 6.05,-1.22482 12.125,-2.70976 13.5,-3.29987 3.26544,-1.40142 33.0901,-1.83509 34.75,-0.50528 1.8799,1.50606 1.5251,3.27617 -1.3389,6.67981 -2.3229,2.7606 -3.1638,3.07673 -8.1843,3.07673 -3.3939,0 -7.195,0.74533 -9.6611,1.89439 -2.2361,1.04191 -7.4407,2.66489 -11.5657,3.60662 -4.125,0.94173 -10.875,2.75843 -15,4.03712 -4.125,1.27869 -9.975,3.03751 -13,3.9085 -6.61657,1.90511 -10.79157,4.49916 -12.37614,7.68968 -0.64566,1.30003 -2.16592,2.50628 -3.37835,2.68055 -1.62062,0.23294 -2.48888,1.37322 -3.27849,4.30561 -0.59073,2.19381 -1.83747,4.61696 -2.77054,5.38476 -4.99994,4.11437 -13.70637,10.35381 -18.12994,12.99277 -2.76582,1.65 -5.03726,3.34335 -5.04765,3.763 -0.0214,0.86275 12.89831,6.87323 17.64233,8.20755 2.73012,0.76788 7.33878,6.7259 7.33878,9.48748 0,3.15699 -4.19061,4.35179 -10.59798,3.02163 -7.86693,-1.63317 -11.80732,-0.52922 -15.64283,4.38254 -9.23656,11.82832 -11.15437,12.24446 -12.02801,2.60987 -0.30937,-3.41186 -0.94165,-6.58254 -1.40506,-7.04595 -1.21919,-1.21919 -13.23602,0.68813 -15.17962,2.40932 -0.90557,0.80195 -2.53067,1.62016 -3.61133,1.81824 -2.6814,0.49151 -6.61806,6.59422 -6.29707,9.76186 0.20208,1.99418 -0.2354,2.65527 -1.91548,2.89449 -1.19756,0.17052 -2.71516,0.95802 -3.37244,1.75 -1.556,1.87486 -2.638,1.82022 -3.763,-0.19004 -0.50171,-0.8965 -0.68292,-3.66415 -0.40269,-6.15032 0.39449,-3.4999 -0.0101,-5.47156 -1.79243,-8.73421 l -2.30194,-4.21389 2.33598,-4.88579 c 1.28479,-2.68718 2.79452,-5.19296 3.35494,-5.5684 0.56043,-0.37545 1.01896,-2.25544 1.01896,-4.17776 0,-4.00331 -2.75784,-6.86882 -8.4,-8.72795 -1.925,-0.6343 -3.9275,-1.54891 -4.45,-2.03247 -0.5225,-0.48356 -3.13958,-0.8792 -5.81574,-0.8792 -2.67616,0 -5.84866,-0.51475 -7.05,-1.14389 -2.87614,-1.50622 -7.45058,-6.60366 -9.29356,-10.35611 -0.81038,-1.65 -4.04231,-5.25 -7.18206,-8 -3.13975,-2.75 -7.95864,-7.60736 -10.70864,-10.79413 -7.79961,-9.0384 -9.95718,-10.85564 -17.60005,-14.82387 l -7.13847,-3.70634 c -5.84687,-1.99376 -7.60176,-3.03271 -9.36264,-3.78236 -3.73459,-1.56041 -8.99699,-6.12851 -8.09689,-7.02862 1.10706,-1.10705 23.44956,2.9703 28.19802,5.14594 5.9691,2.73492 11.0452,4.08668 18.60146,4.95356 3.08081,0.35344 7.02616,1.40609 8.76746,2.33922 1.74129,0.93313 7.43313,3.87661 12.64853,6.54106 9.15524,4.67725 9.48255,4.96132 9.48255,8.22968 0,2.94277 0.52291,3.65198 4.00094,5.42634 2.20052,1.12262 7.43326,4.28177 11.62831,7.02033 4.19505,2.73855 7.94358,4.97919 8.33008,4.97919 0.38649,0 1.3008,1.11754 2.0318,2.48343 0.731,1.36589 1.19238,4.50659 3.04798,5.13933 2.57317,0.87742 1.56552,0.29704 5.40309,2.53877 1.49034,0.87059 4.09134,3.64887 5.41816,4.94159 5.44429,-4.0642 6.0598,-3.24588 16.88577,-12.75941 z m -28.35203,8.62134 c -2.45069,-0.8088 -3.55052,-1.86375 -3.95411,-3.79275 -0.96084,-4.59236 -1.87826,-5.44743 -8.49931,-7.92158 -3.54237,-1.32372 -6.78086,-3.01148 -7.19664,-3.75059 -0.41577,-0.73911 -2.11042,-1.64133 -3.76588,-2.00493 -1.65545,-0.3636 -3.79027,-1.80819 -4.74404,-3.21021 -0.95377,-1.40202 -3.88873,-4.91377 -6.52214,-7.80388 -4.12416,-4.52618 -5.78797,-5.5572 -12,-7.43608 -3.96659,-1.19973 -8.56198,-2.81012 -10.21198,-3.57865 -1.65,-0.76853 -4.35,-1.69339 -6,-2.05525 -2.71484,-0.59538 -13.3924,-5.08761 -17.73643,-7.46201 C 803.80853,192.4271 802.08804,192 800.94024,192 c -2.71837,0 -2.22334,3.32919 0.57124,3.84175 1.09369,0.2006 2.66352,0.95821 3.48852,1.68358 0.825,0.72536 2.76911,1.63562 4.32024,2.0228 1.55113,0.38717 3.35113,1.58465 4,2.66107 0.64887,1.07642 2.94502,2.86852 5.10255,3.98244 2.15754,1.11392 6.14019,4.4515 8.85035,7.41684 2.71015,2.96533 5.54583,5.39152 6.30152,5.39152 0.75569,0 2.01778,1.2375 2.80465,2.75 0.78686,1.5125 2.59842,3.84094 4.02568,5.17431 1.60484,1.49928 2.59501,3.49861 2.59501,5.23979 0,2.29438 0.97168,3.45007 5.25,6.2442 3.11704,2.03572 7.68766,3.91361 11.25,4.62219 7.6576,1.52316 9.33711,2.38305 15.20695,7.7858 2.02063,1.85984 2.39527,2.92261 1.90116,5.39316 -0.33846,1.69228 -0.14209,3.64714 0.43636,4.34413 0.77382,0.9324 0.24629,2.18461 -1.99637,4.73886 -1.89868,2.16248 -3.04233,4.55309 -3.03279,6.33958 0.017,3.19067 1.18933,5.58502 2.57633,5.26201 0.4996,-0.11635 1.65671,0.11802 2.57136,0.52081 1.0878,0.47906 4.20072,-0.65913 9,-3.29068 9.36271,-5.13378 18.87032,-6.53727 22.78907,-3.36405 1.83837,1.48861 2.42581,2.89238 2.34871,5.61251 -0.13462,4.74909 1.53909,4.67617 5.86191,-0.25541 5.47342,-6.24421 9.18718,-8.06957 13.95541,-6.85927 2.87347,0.72937 4.71689,0.68264 6.58124,-0.16681 l 2.58973,-1.17996 -2.69424,-2.81219 c -1.48184,-1.54671 -4.58438,-3.37014 -6.89454,-4.05207 -2.31016,-0.68193 -5.60341,-2.09646 -7.31832,-3.14339 -3.84781,-2.34904 -5.39339,-2.37787 -9.23637,-0.1723 -3.23068,1.85416 -5.17657,1.21595 -3.27577,-1.07438 0.88636,-1.068 0.82033,-1.6691 -0.28405,-2.58565 -1.11836,-0.92816 -1.21069,-1.84872 -0.4145,-4.13267 0.5634,-1.61619 1.31785,-2.94558 1.67655,-2.95421 0.35869,-0.009 2.90217,-2.0774 5.65217,-4.59728 2.75,-2.51989 6.8,-5.89957 9,-7.51041 2.2,-1.61084 4.71141,-4.15456 5.58091,-5.65271 0.86951,-1.49815 2.44451,-2.86276 3.5,-3.03246 4.39305,-0.70631 4.59543,-1.17219 1.60304,-3.69012 C 935.54899,221.1256 933.72421,220 933.1289,220 931.96643,220 924,229.61995 924,231.0237 c 0,1.15659 -7.57874,6.52299 -12.71533,9.00355 -2.31843,1.11962 -4.79489,2.80901 -5.50323,3.75421 -1.76034,2.34895 -8.17848,7.04745 -10.59061,5.83803 -5.05649,-5.47537 -7.86844,-8.0639 -9.79676,-7.65444 z M 917,248.44098 c 0,-0.85746 -0.45,-1.2809 -1,-0.94098 -0.55,0.33992 -1,1.04148 -1,1.55902 0,0.51754 0.45,0.94098 1,0.94098 0.55,0 1,-0.70156 1,-1.55902 z M 928.5,238 c 0.33992,-0.55 0.14148,-1 -0.44098,-1 -0.58246,0 -1.05902,0.45 -1.05902,1 0,0.55 0.19844,1 0.44098,1 0.24254,0 0.7191,-0.45 1.05902,-1 z m 12.42611,-6.41097 c 0.80813,-0.97374 0.8433,-1.61351 0.1135,-2.06455 -1.59335,-0.98474 -5.03961,0.41227 -5.03961,2.04291 0,1.84376 3.40148,1.85871 4.92611,0.0216 z m 6.45216,-16.49302 c 2.81695,-1.5972 9.35018,-4.31072 14.51829,-6.03004 5.16811,-1.71933 10.56811,-3.73526 12,-4.47984 3.86517,-2.00989 20.09346,-5.5767 25.70787,-5.65033 6.99757,-0.0918 17.42147,-2.47715 15.07467,-3.44964 -4.204,-1.74207 -37.50677,3.17962 -43.83531,6.47825 -2.14796,1.11957 -4.58064,2.03559 -5.40597,2.03559 -0.82532,0 -1.74975,0.64931 -2.05428,1.4429 -0.40673,1.0599 -1.16622,1.21002 -2.8613,0.56556 -2.80007,-1.06459 -6.12682,-0.32762 -9.67661,2.14364 -1.4599,1.01635 -3.5903,1.8479 -4.73422,1.8479 -2.69058,0 -8.66441,5.29621 -7.71201,6.83722 1.13496,1.8364 3.46653,1.38426 8.97887,-1.74121 z M 971.5,211 c 0.34463,-0.55763 -0.40341,-0.99323 -1.69098,-0.98469 -1.85764,0.0123 -2.01579,0.20481 -0.80902,0.98469 1.86074,1.2025 1.75681,1.2025 2.5,0 z m 19.65462,-5.59556 c 2.27458,-1.40577 0.56302,-2.57516 -2.90462,-1.98453 -2.0625,0.3513 -4.875,0.81397 -6.25,1.02816 -1.375,0.2142 -2.95,0.47086 -3.5,0.57037 -0.55,0.0995 0.125,0.56067 1.5,1.02482 2.42716,0.81931 9.44567,0.41737 11.15462,-0.63882 z"
       style="fill:#000000" />
    <path
       sodipodi:nodetypes="cccccccccccc"
       inkscape:connector-curvature="0"
       id="path3112"
       d="m 878.77033,272.67943 c 0.20688,0.25048 0.28007,0.59606 0.21547,0.91186 -0.006,0.17235 -0.007,0.34575 -0.0373,0.51606 -0.13123,0.14288 -0.33653,0.063 -0.50356,0.0836 -0.23748,0.049 -0.5266,0.0989 -0.72381,-0.0807 -0.14455,-0.12614 -0.1717,-0.32443 -0.22141,-0.49603 -0.0811,-0.14217 -0.20553,-0.29968 -0.14601,-0.47315 0.0533,-0.28434 0.26065,-0.50996 0.48624,-0.67673 0.10846,-0.12979 0.24705,-0.14383 0.46536,-0.0625 0.18266,0.0897 0.17102,0.0621 0.33797,0.17195 0.0427,0.0347 0.0869,0.0678 0.1271,0.10558 z"
       style="fill:none;stroke:#000000;stroke-width:1px;stroke-linecap:butt;stroke-linejoin:miter;stroke-opacity:1" />
  </g>
</svg>
